<svg version="1.1" id="Layer_1" xmlns="http://www.w3.org/2000/svg" xmlns:xlink="http://www.w3.org/1999/xlink" x="0px" y="0px"
	 width="100%" viewBox="0 0 512 512" enable-background="new 0 0 512 512" xml:space="preserve">
<path fill="#000000" opacity="1.000000" stroke="none" 
	d="
M1.000000,491.000000 
	C1.000000,348.645782 1.000000,206.291550 1.361026,63.360882 
	C4.533173,50.633476 17.903973,40.016598 29.655907,40.923454 
	C35.368382,41.364269 41.143013,40.999653 47.456375,40.999653 
	C47.456375,34.569916 46.443779,28.573404 47.667679,23.074692 
	C50.196766,11.712060 58.630367,5.224190 69.000000,1.000000 
	C74.022095,1.000000 79.044182,1.000000 84.640915,1.361026 
	C97.365654,4.533483 108.082962,17.911627 107.051239,29.678221 
	C106.725304,33.395496 107.000343,37.165470 107.000343,40.681252 
	C127.410301,40.681252 147.130020,40.681252 167.441895,40.681252 
	C167.441895,34.589199 166.427490,28.589266 167.653580,23.088753 
	C170.187302,11.721849 178.635269,5.238214 189.000000,1.000000 
	C194.022095,1.000000 199.044189,1.000000 204.640930,1.361029 
	C217.365631,4.533464 228.082977,17.911613 227.051254,29.678190 
	C226.725311,33.395466 227.000336,37.165436 227.000336,40.681263 
	C247.410278,40.681263 267.130005,40.681263 287.441864,40.681263 
	C287.441864,34.589214 286.427429,28.589270 287.653534,23.088758 
	C290.187286,11.721882 298.635254,5.238207 309.000000,1.000000 
	C314.022095,1.000000 319.044189,1.000000 324.640930,1.361036 
	C337.365479,4.533389 348.083069,17.911615 347.051208,29.678192 
	C346.725220,33.395462 347.000305,37.165447 347.000305,40.681263 
	C367.410278,40.681263 387.130005,40.681263 407.441864,40.681263 
	C407.441864,34.589214 406.427429,28.589270 407.653534,23.088758 
	C410.187286,11.721882 418.635254,5.238207 429.000000,1.000000 
	C434.022095,1.000000 439.044189,1.000000 444.640930,1.361036 
	C457.366394,4.533090 468.074219,17.910160 467.050903,29.654499 
	C466.726929,33.372890 467.000305,37.143326 467.000305,40.999653 
	C469.986664,40.999653 472.306915,40.955490 474.624908,41.008499 
	C480.074615,41.133129 485.728607,40.423702 490.930176,41.637043 
	C502.273102,44.282967 508.775757,52.630398 513.000000,63.000000 
	C513.000000,205.354233 513.000000,347.708466 512.638916,490.639160 
	C511.926331,492.265839 511.598419,493.324646 511.219452,494.364899 
	C507.688904,504.056061 499.922363,509.156128 491.000000,513.000000 
	C335.312439,513.000000 179.624878,513.000000 23.360878,512.638916 
	C21.734211,511.926300 20.675344,511.598450 19.635105,511.219482 
	C9.943945,507.688965 4.843868,499.922394 1.000000,491.000000 
M347.500000,493.000183 
	C391.320068,493.000183 435.140137,493.001801 478.960205,492.999084 
	C489.864136,492.998413 492.998657,489.888977 492.998871,479.063873 
	C493.001007,370.096741 493.000153,261.129639 493.000153,152.162506 
	C493.000153,150.549484 493.000183,148.936447 493.000183,147.361542 
	C335.381775,147.361542 178.225601,147.361542 20.999779,147.361542 
	C20.999779,149.387665 20.999779,151.052094 20.999779,152.716537 
	C20.999779,261.350433 20.999413,369.984314 21.000315,478.618195 
	C21.000410,490.101013 23.943211,492.999786 35.593815,492.999847 
	C139.229218,493.000427 242.864609,493.000183 347.500000,493.000183 
M81.798943,102.623032 
	C78.877716,102.967590 75.872368,103.934418 73.049309,103.552795 
	C57.996685,101.517906 47.545925,89.530472 47.040867,74.055748 
	C46.901772,69.793961 47.019714,65.523781 47.019714,60.999996 
	C42.060940,60.999996 37.751221,60.969688 33.442074,61.006355 
	C24.663597,61.081051 21.031618,64.711830 21.010984,73.563751 
	C20.972534,90.058243 20.992516,106.552879 21.014713,123.047424 
	C21.016411,124.309456 21.227585,125.571198 21.325520,126.657082 
	C178.731064,126.657082 335.753571,126.657082 493.000061,126.657082 
	C493.000061,108.836380 493.019440,91.357788 492.992249,73.879272 
	C492.977631,64.501564 489.415497,61.017223 479.873840,61.005371 
	C463.712524,60.985294 447.551117,60.993069 431.389771,61.011738 
	C429.966766,61.013382 428.543945,61.181625 427.002472,61.280064 
	C427.002472,65.408775 426.918915,69.070541 427.020691,72.727158 
	C427.206177,79.392868 430.101135,82.682846 436.732056,83.967072 
	C443.788788,85.333763 447.636169,89.623955 446.819183,95.215317 
	C445.920227,101.367928 440.575775,104.716286 433.291656,103.690475 
	C418.278412,101.576187 407.631927,89.712563 407.051819,74.313995 
	C406.890442,70.030815 407.027191,65.736412 407.027191,61.256306 
	C373.498596,61.256306 340.446869,61.256306 307.000000,61.256306 
	C307.000000,64.797241 306.979889,68.093925 307.003998,71.390289 
	C307.063263,79.487038 309.570465,82.530846 317.389465,84.044846 
	C323.846039,85.295029 327.678802,89.917206 326.783264,95.373444 
	C325.850952,101.054016 321.047028,104.397552 314.620575,103.838692 
	C299.302155,102.506546 287.773193,90.356468 287.074310,74.650833 
	C286.877045,70.218147 287.044159,65.769234 287.044159,61.313271 
	C253.382599,61.313271 220.330429,61.313271 187.000214,61.313271 
	C187.000214,65.100143 186.956467,68.576904 187.009277,72.052193 
	C187.121048,79.406509 189.850250,82.626305 197.054123,84.005157 
	C203.685547,85.274429 207.530334,89.608429 206.845123,95.041878 
	C206.086334,101.058685 200.904434,104.570930 193.961761,103.774101 
	C178.771423,102.030655 167.701340,90.040230 167.063721,74.489090 
	C166.882614,70.071854 167.036011,65.640900 167.036011,61.370239 
	C133.266754,61.370239 100.213783,61.370239 67.000053,61.370239 
	C67.000053,65.064812 66.970245,68.390060 67.006050,71.714607 
	C67.089180,79.431450 69.702034,82.683426 77.221596,83.987122 
	C81.703491,84.764168 85.065056,86.751930 86.414291,91.270317 
	C87.776825,95.833199 86.150269,99.403099 81.798943,102.623032 
M324.559814,26.031425 
	C321.328949,20.238146 311.941620,20.205824 309.353943,26.392296 
	C307.519348,30.778383 307.248169,35.818405 306.248688,40.715904 
	C314.013428,40.715904 320.415894,40.715904 327.808624,40.715904 
	C326.848907,35.726471 325.976379,31.190269 324.559814,26.031425 
M428.275238,27.196627 
	C427.714905,31.649122 427.154572,36.101620 426.564178,40.792961 
	C433.836761,40.792961 440.236816,40.792961 446.998810,40.792961 
	C446.998810,38.141140 447.154144,35.677963 446.966003,33.241306 
	C446.591187,28.387075 444.857513,23.775009 440.042877,22.241793 
	C435.756989,20.876951 431.339142,21.971601 428.275238,27.196627 
M206.999664,36.553329 
	C206.663239,33.833214 206.807388,30.933441 205.873947,28.436504 
	C204.581497,24.979176 202.362442,22.268389 197.973434,21.912865 
	C192.970825,21.507639 189.591766,23.973114 188.226028,28.022631 
	C186.888794,31.987610 187.162598,36.495922 186.705566,40.999462 
	C193.106323,40.999462 198.582489,40.780685 204.029694,41.083313 
	C207.186462,41.258690 207.143143,39.611912 206.999664,36.553329 
M67.306519,31.169600 
	C67.306519,34.394646 67.306519,37.619694 67.306519,40.706665 
	C74.041969,40.706665 80.441391,40.706665 86.998466,40.706665 
	C86.998466,37.938465 87.104881,35.455669 86.953796,32.988640 
	C86.877670,31.745737 86.298813,30.539797 86.008636,29.302750 
	C84.807198,24.180943 81.442924,21.745640 75.878372,22.000416 
	C71.731857,22.190269 68.444046,25.723450 67.306519,31.169600 
z"/>
<path fill="#FFFFFF" opacity="1.000000" stroke="none" 
	d="
M188.531342,1.000000 
	C178.635269,5.238214 170.187302,11.721849 167.653580,23.088753 
	C166.427490,28.589266 167.441895,34.589199 167.441895,40.681252 
	C147.130020,40.681252 127.410301,40.681252 107.000343,40.681252 
	C107.000343,37.165470 106.725304,33.395496 107.051239,29.678221 
	C108.082962,17.911627 97.365654,4.533483 85.107773,1.361026 
	C119.354225,1.000000 153.708450,1.000000 188.531342,1.000000 
z"/>
<path fill="#FFFFFF" opacity="1.000000" stroke="none" 
	d="
M308.531342,1.000000 
	C298.635254,5.238207 290.187286,11.721882 287.653534,23.088758 
	C286.427429,28.589270 287.441864,34.589214 287.441864,40.681263 
	C267.130005,40.681263 247.410278,40.681263 227.000336,40.681263 
	C227.000336,37.165436 226.725311,33.395466 227.051254,29.678190 
	C228.082977,17.911613 217.365631,4.533464 205.107788,1.361029 
	C239.354233,1.000000 273.708466,1.000000 308.531342,1.000000 
z"/>
<path fill="#FFFFFF" opacity="1.000000" stroke="none" 
	d="
M428.531342,1.000000 
	C418.635254,5.238207 410.187286,11.721882 407.653534,23.088758 
	C406.427429,28.589270 407.441864,34.589214 407.441864,40.681263 
	C387.130005,40.681263 367.410278,40.681263 347.000305,40.681263 
	C347.000305,37.165447 346.725220,33.395462 347.051208,29.678192 
	C348.083069,17.911615 337.365479,4.533389 325.107788,1.361036 
	C359.354218,1.000000 393.708466,1.000000 428.531342,1.000000 
z"/>
<path fill="#FFFFFF" opacity="1.000000" stroke="none" 
	d="
M68.531342,1.000000 
	C58.630367,5.224190 50.196766,11.712060 47.667679,23.074692 
	C46.443779,28.573404 47.456375,34.569916 47.456375,40.999653 
	C41.143013,40.999653 35.368382,41.364269 29.655907,40.923454 
	C17.903973,40.016598 4.533173,50.633476 1.361026,62.892223 
	C1.000000,42.403122 1.000000,21.806248 1.000000,1.000000 
	C23.353792,1.000000 45.708237,1.000000 68.531342,1.000000 
z"/>
<path fill="#FFFFFF" opacity="1.000000" stroke="none" 
	d="
M513.000000,62.531342 
	C508.775757,52.630398 502.273102,44.282967 490.930176,41.637043 
	C485.728607,40.423702 480.074615,41.133129 474.624908,41.008499 
	C472.306915,40.955490 469.986664,40.999653 467.000305,40.999653 
	C467.000305,37.143326 466.726929,33.372890 467.050903,29.654499 
	C468.074219,17.910160 457.366394,4.533090 445.107788,1.361036 
	C467.590118,1.000000 490.180267,1.000000 513.000000,1.000000 
	C513.000000,21.353653 513.000000,41.708168 513.000000,62.531342 
z"/>
<path fill="#FFFFFF" opacity="1.000000" stroke="none" 
	d="
M1.000000,491.468781 
	C4.843868,499.922394 9.943945,507.688965 19.635105,511.219482 
	C20.675344,511.598450 21.734211,511.926300 22.892220,512.638916 
	C15.740432,513.000000 8.480864,513.000000 1.000000,513.000000 
	C1.000000,505.980743 1.000000,498.959137 1.000000,491.468781 
z"/>
<path fill="#FFFFFF" opacity="1.000000" stroke="none" 
	d="
M491.468781,513.000000 
	C499.922363,509.156128 507.688904,504.056061 511.219452,494.364899 
	C511.598419,493.324646 511.926331,492.265839 512.638916,491.107788 
	C513.000000,498.259552 513.000000,505.519135 513.000000,513.000000 
	C505.980743,513.000000 498.959137,513.000000 491.468781,513.000000 
z"/>
<path fill="#FFFFFF" opacity="1.000000" stroke="none" 
	d="
M347.000000,493.000183 
	C242.864609,493.000183 139.229218,493.000427 35.593815,492.999847 
	C23.943211,492.999786 21.000410,490.101013 21.000315,478.618195 
	C20.999413,369.984314 20.999779,261.350433 20.999779,152.716537 
	C20.999779,151.052094 20.999779,149.387665 20.999779,147.361542 
	C178.225601,147.361542 335.381775,147.361542 493.000183,147.361542 
	C493.000183,148.936447 493.000153,150.549484 493.000153,152.162506 
	C493.000153,261.129639 493.001007,370.096741 492.998871,479.063873 
	C492.998657,489.888977 489.864136,492.998413 478.960205,492.999084 
	C435.140137,493.001801 391.320068,493.000183 347.000000,493.000183 
M302.537872,437.015411 
	C350.039124,413.951538 374.709564,367.152649 364.732086,315.615112 
	C353.023315,255.135254 294.157532,216.343140 234.174957,229.576752 
	C174.713669,242.695328 139.206757,296.635071 148.889603,356.899231 
	C149.538788,360.939606 150.974060,364.804077 155.010910,365.764404 
	C158.052078,366.487885 162.024307,366.179352 164.737106,364.738831 
	C169.010010,362.469879 169.459488,357.886688 168.594269,353.300262 
	C165.526306,337.037170 167.070190,321.196472 172.780899,305.675446 
	C187.540573,265.560455 228.952469,241.415543 271.485870,248.216782 
	C313.183136,254.884323 345.111359,290.807892 346.867340,333.031067 
	C349.396790,393.852753 292.040192,439.760345 233.307571,423.849243 
	C221.609482,420.680145 210.901215,415.459900 200.716949,407.005066 
	C204.109650,407.005066 206.412109,407.005219 208.714584,407.005035 
	C211.047607,407.004883 213.382324,407.061493 215.713348,406.993134 
	C222.479980,406.794708 227.066559,402.615265 226.942001,396.821899 
	C226.820969,391.192749 222.370895,387.089966 215.857117,387.029785 
	C203.359818,386.914337 190.859970,386.914612 178.362625,387.026428 
	C170.922363,387.092987 167.070465,391.059601 167.018341,398.603638 
	C166.933121,410.934753 166.926041,423.267456 167.023209,435.598389 
	C167.076889,442.411163 171.262863,446.984955 177.063049,446.942017 
	C182.853958,446.899139 186.860504,442.323944 186.989655,435.472168 
	C187.069565,431.233002 187.004486,426.991119 187.004486,422.346527 
	C222.974213,448.739838 260.960876,454.382660 302.537872,437.015411 
M192.500000,187.000092 
	C259.949341,187.000076 327.398682,187.009216 394.848022,186.986847 
	C402.144684,186.984436 406.801361,183.120499 406.937256,177.188507 
	C407.073517,171.241394 402.370209,167.022461 395.225037,167.019638 
	C316.450928,166.988495 237.676804,166.989777 158.902679,167.017212 
	C151.702789,167.019730 147.017426,171.113297 147.062698,177.060867 
	C147.107925,183.001266 151.781372,186.947403 159.024490,186.985306 
	C169.849396,187.041962 180.674805,187.000076 192.500000,187.000092 
M107.140411,175.831924 
	C107.578331,183.416183 112.444824,187.996353 118.731491,186.741058 
	C123.488632,185.791183 127.051712,181.491531 126.951950,176.821259 
	C126.851151,172.101776 123.165291,167.957458 118.381729,167.185028 
	C113.471481,166.392136 109.542068,169.185303 107.140411,175.831924 
z"/>
<path fill="#FF5D5D" opacity="1.000000" stroke="none" 
	d="
M82.110138,102.386620 
	C86.150269,99.403099 87.776825,95.833199 86.414291,91.270317 
	C85.065056,86.751930 81.703491,84.764168 77.221596,83.987122 
	C69.702034,82.683426 67.089180,79.431450 67.006050,71.714607 
	C66.970245,68.390060 67.000053,65.064812 67.000053,61.370239 
	C100.213783,61.370239 133.266754,61.370239 167.036011,61.370239 
	C167.036011,65.640900 166.882614,70.071854 167.063721,74.489090 
	C167.701340,90.040230 178.771423,102.030655 193.961761,103.774101 
	C200.904434,104.570930 206.086334,101.058685 206.845123,95.041878 
	C207.530334,89.608429 203.685547,85.274429 197.054123,84.005157 
	C189.850250,82.626305 187.121048,79.406509 187.009277,72.052193 
	C186.956467,68.576904 187.000214,65.100143 187.000214,61.313271 
	C220.330429,61.313271 253.382599,61.313271 287.044159,61.313271 
	C287.044159,65.769234 286.877045,70.218147 287.074310,74.650833 
	C287.773193,90.356468 299.302155,102.506546 314.620575,103.838692 
	C321.047028,104.397552 325.850952,101.054016 326.783264,95.373444 
	C327.678802,89.917206 323.846039,85.295029 317.389465,84.044846 
	C309.570465,82.530846 307.063263,79.487038 307.003998,71.390289 
	C306.979889,68.093925 307.000000,64.797241 307.000000,61.256306 
	C340.446869,61.256306 373.498596,61.256306 407.027191,61.256306 
	C407.027191,65.736412 406.890442,70.030815 407.051819,74.313995 
	C407.631927,89.712563 418.278412,101.576187 433.291656,103.690475 
	C440.575775,104.716286 445.920227,101.367928 446.819183,95.215317 
	C447.636169,89.623955 443.788788,85.333763 436.732056,83.967072 
	C430.101135,82.682846 427.206177,79.392868 427.020691,72.727158 
	C426.918915,69.070541 427.002472,65.408775 427.002472,61.280064 
	C428.543945,61.181625 429.966766,61.013382 431.389771,61.011738 
	C447.551117,60.993069 463.712524,60.985294 479.873840,61.005371 
	C489.415497,61.017223 492.977631,64.501564 492.992249,73.879272 
	C493.019440,91.357788 493.000061,108.836380 493.000061,126.657082 
	C335.753571,126.657082 178.731064,126.657082 21.325520,126.657082 
	C21.227585,125.571198 21.016411,124.309456 21.014713,123.047424 
	C20.992516,106.552879 20.972534,90.058243 21.010984,73.563751 
	C21.031618,64.711830 24.663597,61.081051 33.442074,61.006355 
	C37.751221,60.969688 42.060940,60.999996 47.019714,60.999996 
	C47.019714,65.523781 46.901772,69.793961 47.040867,74.055748 
	C47.545925,89.530472 57.996685,101.517906 73.049309,103.552795 
	C75.872368,103.934418 78.877716,102.967590 82.110138,102.386620 
z"/>
<path fill="#FFFFFF" opacity="1.000000" stroke="none" 
	d="
M324.831848,26.342747 
	C325.976379,31.190269 326.848907,35.726471 327.808624,40.715904 
	C320.415894,40.715904 314.013428,40.715904 306.248688,40.715904 
	C307.248169,35.818405 307.519348,30.778383 309.353943,26.392296 
	C311.941620,20.205824 321.328949,20.238146 324.831848,26.342747 
z"/>
<path fill="#FFFFFF" opacity="1.000000" stroke="none" 
	d="
M428.585724,26.925278 
	C431.339142,21.971601 435.756989,20.876951 440.042877,22.241793 
	C444.857513,23.775009 446.591187,28.387075 446.966003,33.241306 
	C447.154144,35.677963 446.998810,38.141140 446.998810,40.792961 
	C440.236816,40.792961 433.836761,40.792961 426.564178,40.792961 
	C427.154572,36.101620 427.714905,31.649122 428.585724,26.925278 
z"/>
<path fill="#FFFFFF" opacity="1.000000" stroke="none" 
	d="
M206.999649,37.019360 
	C207.143143,39.611912 207.186462,41.258690 204.029694,41.083313 
	C198.582489,40.780685 193.106323,40.999462 186.705566,40.999462 
	C187.162598,36.495922 186.888794,31.987610 188.226028,28.022631 
	C189.591766,23.973114 192.970825,21.507639 197.973434,21.912865 
	C202.362442,22.268389 204.581497,24.979176 205.873947,28.436504 
	C206.807388,30.933441 206.663239,33.833214 206.999649,37.019360 
z"/>
<path fill="#FFFFFF" opacity="1.000000" stroke="none" 
	d="
M67.615562,30.858692 
	C68.444046,25.723450 71.731857,22.190269 75.878372,22.000416 
	C81.442924,21.745640 84.807198,24.180943 86.008636,29.302750 
	C86.298813,30.539797 86.877670,31.745737 86.953796,32.988640 
	C87.104881,35.455669 86.998466,37.938465 86.998466,40.706665 
	C80.441391,40.706665 74.041969,40.706665 67.306519,40.706665 
	C67.306519,37.619694 67.306519,34.394646 67.615562,30.858692 
z"/>
<path fill="#030303" opacity="1.000000" stroke="none" 
	d="
M302.187500,437.162292 
	C260.960876,454.382660 222.974213,448.739838 187.004486,422.346527 
	C187.004486,426.991119 187.069565,431.233002 186.989655,435.472168 
	C186.860504,442.323944 182.853958,446.899139 177.063049,446.942017 
	C171.262863,446.984955 167.076889,442.411163 167.023209,435.598389 
	C166.926041,423.267456 166.933121,410.934753 167.018341,398.603638 
	C167.070465,391.059601 170.922363,387.092987 178.362625,387.026428 
	C190.859970,386.914612 203.359818,386.914337 215.857117,387.029785 
	C222.370895,387.089966 226.820969,391.192749 226.942001,396.821899 
	C227.066559,402.615265 222.479980,406.794708 215.713348,406.993134 
	C213.382324,407.061493 211.047607,407.004883 208.714584,407.005035 
	C206.412109,407.005219 204.109650,407.005066 200.716949,407.005066 
	C210.901215,415.459900 221.609482,420.680145 233.307571,423.849243 
	C292.040192,439.760345 349.396790,393.852753 346.867340,333.031067 
	C345.111359,290.807892 313.183136,254.884323 271.485870,248.216782 
	C228.952469,241.415543 187.540573,265.560455 172.780899,305.675446 
	C167.070190,321.196472 165.526306,337.037170 168.594269,353.300262 
	C169.459488,357.886688 169.010010,362.469879 164.737106,364.738831 
	C162.024307,366.179352 158.052078,366.487885 155.010910,365.764404 
	C150.974060,364.804077 149.538788,360.939606 148.889603,356.899231 
	C139.206757,296.635071 174.713669,242.695328 234.174957,229.576752 
	C294.157532,216.343140 353.023315,255.135254 364.732086,315.615112 
	C374.709564,367.152649 350.039124,413.951538 302.187500,437.162292 
z"/>
<path fill="#000000" opacity="1.000000" stroke="none" 
	d="
M192.000000,187.000092 
	C180.674805,187.000076 169.849396,187.041962 159.024490,186.985306 
	C151.781372,186.947403 147.107925,183.001266 147.062698,177.060867 
	C147.017426,171.113297 151.702789,167.019730 158.902679,167.017212 
	C237.676804,166.989777 316.450928,166.988495 395.225037,167.019638 
	C402.370209,167.022461 407.073517,171.241394 406.937256,177.188507 
	C406.801361,183.120499 402.144684,186.984436 394.848022,186.986847 
	C327.398682,187.009216 259.949341,187.000076 192.000000,187.000092 
z"/>
<path fill="#070707" opacity="1.000000" stroke="none" 
	d="
M107.222534,175.445465 
	C109.542068,169.185303 113.471481,166.392136 118.381729,167.185028 
	C123.165291,167.957458 126.851151,172.101776 126.951950,176.821259 
	C127.051712,181.491531 123.488632,185.791183 118.731491,186.741058 
	C112.444824,187.996353 107.578331,183.416183 107.222534,175.445465 
z"/>
</svg>